<svg width="256" height="256" viewBox="0 0 256 256" fill="none" xmlns="http://www.w3.org/2000/svg">
<rect width="256" height="256" fill="url(#paint0_linear_278_1648)"/>
<path d="M116.703 127.934C116.703 110.315 112.404 92.8932 104.259 77.5928C102.816 74.8495 100.441 72.9263 97.6126 72.1062C94.9258 71.3426 92.0693 71.7385 89.6371 73.1526C84.3202 76.2636 82.4253 83.4189 85.4231 89.0469C91.7017 100.869 95.0107 114.303 95.0107 127.934C95.0107 141.566 91.73 154.83 85.5363 166.595C82.5667 172.252 84.4616 179.379 89.8068 182.462C91.3906 183.395 93.1723 183.876 94.9541 183.876C98.857 183.876 102.477 181.613 104.4 177.965C112.432 162.749 116.674 145.441 116.674 127.934H116.703Z" fill="white"/>
<path d="M138.451 205.087C140.092 206.105 141.986 206.614 143.853 206.614C147.728 206.614 151.348 204.408 153.327 200.845C165.291 179.153 171.597 154.378 171.597 129.179C171.597 103.98 164.697 76.9424 151.602 54.5149C150.047 51.8282 147.586 49.9616 144.673 49.2828C143.881 49.0848 143.061 49 142.241 49C140.261 49 138.31 49.5939 136.613 50.6969C131.352 54.0907 129.712 61.3874 132.965 66.9589C143.881 85.6531 149.622 107.176 149.622 129.207C149.622 151.238 144.362 170.866 134.379 188.938C131.268 194.594 133.078 201.835 138.423 205.087H138.451Z" fill="white"/>
<defs>
<linearGradient id="paint0_linear_278_1648" x1="0" y1="128" x2="256" y2="128" gradientUnits="userSpaceOnUse">
<stop stop-color="#42DDB1"/>
<stop offset="1" stop-color="#1B9D79"/>
</linearGradient>
</defs>
</svg>
